<svg version="1.2" xmlns="http://www.w3.org/2000/svg" viewBox="0 0 400 313" width="400" height="313">
	<title>image2vector</title>
	<style>
		.s0 { fill: #00016a } 
	</style>
	<g id="svgg">
		<path id="path0" fill-rule="evenodd" class="s0" d="m150.7 64.5h50.9l15.7 31.3 15.6 31.4 21.9 0.5c17.6 0.4 23.1 0 28.3-2.2 37.2-15.5 93.4-4.7 105.5 20.2 6.1 12.6 6.5 12.4-20.9 12.4h-24.2v-4c0-8.1-9-11.7-25.4-10-23.4 2.4-13.6 12.3 21.7 21.9 44.8 12.3 55.4 20.6 55.4 44.1 0 16.9-5.9 26.7-20.3 33.9-18.9 9.6-67.2 11.8-89 4.2l-11.7-4.1v14h-54.8v-33.1c0-19.2-0.7-33.1-1.5-33.1-0.9 0-3.8-4-6.6-8.8l-5.1-8.9h-54.3l-5 8.1c-4.6 7.5-5 9.1-5 23.4v15.3h-133.8v-127.5h128.3l7.1-14.5zm-20 43.5c-7.9 15.8-8 14.6 1.6 14.6h8.1v-13.7c0-17.1-1.4-17.2-9.7-0.9zm54.3 15.8l-8.3-17.3-8.1 17.1c-4.4 9.5-8.3 17.8-8.6 18.6-0.3 0.7 7.2 1.4 16.6 1.4 9.4 0 17-0.6 16.9-1.2-0.1-0.7-3.9-9-8.5-18.6zm-64 0.4h-62.9v17.8h54.2l4.4-8.9zm112.1 6.4h-12.1v59.7h41.9l-14.9-29.8zm38.8 1.6c-0.4 0-2.9 2.7-5.7 6-11.5 14-10.3 31.8 2.8 40.4l3.6 2.4v-24.4c0-13.4-0.3-24.4-0.7-24.4zm-131.6 11.3h-27.3l-6.5 12.9-6.5 12.9h40.3zm-43.5 29h-38.7v17.8h30l4.3-8.9zm185.1 15.4l-7.6-3.7v20.5h12.2c10.2 0 12.1 0.5 11.4 2.4-2.7 7.1 17.1 18.8 32.2 19 19.2 0.1 26.2-15.6 10.6-23.6-4.1-2.2-10.5-3.6-41.4-9.2-5.4-0.9-13.2-3.4-17.4-5.4zm-9.2 18.5h-19.8l1 6.6c1.5 8.8 4.3 13.9 12.2 21.5l6.6 6.4z"/>
	</g>
</svg>