<svg xmlns="http://www.w3.org/2000/svg" width="40.628" height="49.639" viewBox="0 0 40.628 49.639"><defs><style>.b{fill:#e08333}</style></defs><path d="M26.559 41.572a.37.37 0 00.375.338h9.042a9.45 9.45 0 01.938 3.452 6.1 6.1 0 01-.976 3.152H4.648a6.134 6.134 0 01-.938-3.152 10.269 10.269 0 01.938-3.452h9.042a.37.37 0 00.375-.338.407.407 0 00-.3-.413C6.411 40.033 2.547 32.267 2.547 27.088c0-2.626.45-3.414 1.051-4.427a10.552 10.552 0 001.5-4.427 7.778 7.778 0 00-3.9-7.729l2.737-9.117a12.816 12.816 0 008.367 3.264 13.88 13.88 0 008.029-2.776 12.626 12.626 0 002.851 1.651 13.033 13.033 0 005.178 1.126 12.964 12.964 0 008.367-3.265l2.739 9.117a7.627 7.627 0 00-3.865 7.729 10.339 10.339 0 001.5 4.427 7.1 7.1 0 011.052 4.427c0 5.14-3.9 12.907-11.218 14.07a.4.4 0 00-.376.414z" fill="#efefef"/><path d="M40.255 10.58l-3-9.943a.453.453 0 00-.268-.262h-.113a.7.7 0 00-.263.075 13.539 13.539 0 01-4.015 2.589 11.308 11.308 0 01-4.277.863 13.564 13.564 0 01-7.654-2.664.452.452 0 00-.188-.188.281.281 0 00-.188-.038h-.032a.226.226 0 00-.15.038.452.452 0 00-.188.188 13.159 13.159 0 01-7.654 2.664A12.385 12.385 0 013.973.45a.4.4 0 00-.225-.075h-.113a.453.453 0 00-.263.263l-3 9.943a.406.406 0 00.188.45 7.02 7.02 0 013.714 7.129 9.754 9.754 0 01-1.387 4.164 7.865 7.865 0 00-1.126 4.8c0 4.765 3.189 11.631 9.192 14.07h-6.53a.394.394 0 00-.338.188 11.384 11.384 0 00-1.126 3.977 6.743 6.743 0 001.2 3.752.341.341 0 00.3.15h31.743a.463.463 0 00.3-.15 7.076 7.076 0 001.2-3.752 11.384 11.384 0 00-1.126-3.977.394.394 0 00-.338-.188h-6.564c6-2.439 9.192-9.3 9.192-14.07a7.865 7.865 0 00-1.126-4.8 9.753 9.753 0 01-1.388-4.165 6.992 6.992 0 013.714-7.129.406.406 0 00.189-.45zm-4.69 7.654a10.339 10.339 0 001.5 4.427 7.1 7.1 0 011.051 4.427c0 5.14-3.9 12.907-11.218 14.07a.352.352 0 00-.3.413.37.37 0 00.375.338h9.042a9.45 9.45 0 01.938 3.452 6.1 6.1 0 01-.976 3.152H4.648a6.134 6.134 0 01-.938-3.152 10.269 10.269 0 01.938-3.452h9.039a.37.37 0 00.375-.338.407.407 0 00-.3-.413c-7.35-1.125-11.215-8.891-11.215-14.069 0-2.626.45-3.414 1.051-4.427a10.552 10.552 0 001.5-4.427 7.778 7.778 0 00-3.9-7.729l2.737-9.118a12.816 12.816 0 008.367 3.264 13.88 13.88 0 008.03-2.777 12.626 12.626 0 002.855 1.652 13.033 13.033 0 005.178 1.126 12.964 12.964 0 008.367-3.264l2.735 9.116a7.719 7.719 0 00-3.902 7.729z"/><path class="b" d="M40.588 10.468l-3-9.943a.64.64 0 00-.525-.488.281.281 0 00-.186-.037.79.79 0 00-.489.188 15.316 15.316 0 01-3.94 2.551 10.528 10.528 0 01-4.127.825 12.67 12.67 0 01-7.354-2.551.6.6 0 00-.336-.263 1.1 1.1 0 00-.338-.075h-.038a1.1 1.1 0 00-.337.075.667.667 0 00-.3.263 12.794 12.794 0 01-7.316 2.551A12.01 12.01 0 014.235.188.713.713 0 003.747 0a.476.476 0 00-.225.038.787.787 0 00-.488.488l-3 9.943a.785.785 0 00.375.9 6.6 6.6 0 013.527 6.716 9.411 9.411 0 01-1.348 4.052c-.638 1.088-1.2 2.026-1.2 4.99A16.77 16.77 0 009.3 40.821H4.423a.747.747 0 00-.675.413 11.188 11.188 0 00-1.16 4.127 7.072 7.072 0 001.276 3.977.783.783 0 00.6.3h31.738a.636.636 0 00.6-.338 7.759 7.759 0 001.276-3.977 11.471 11.471 0 00-1.163-4.123.709.709 0 00-.675-.413h-4.952a16.77 16.77 0 007.917-13.695c0-2.964-.563-3.94-1.2-4.99a9.4 9.4 0 01-1.351-4.015 6.444 6.444 0 013.527-6.716.71.71 0 00.407-.903zm-.563.563a6.892 6.892 0 00-3.714 7.129 9.754 9.754 0 001.388 4.165 7.865 7.865 0 011.126 4.8c0 4.765-3.189 11.631-9.192 14.07h6.566a.394.394 0 01.338.188 10.575 10.575 0 011.126 3.977 6.743 6.743 0 01-1.2 3.752.341.341 0 01-.3.15H4.423a.463.463 0 01-.3-.15 7.076 7.076 0 01-1.2-3.752 11.384 11.384 0 011.125-3.976.394.394 0 01.34-.184h6.566c-6-2.439-9.192-9.3-9.192-14.07a7.865 7.865 0 011.126-4.8 9.754 9.754 0 001.385-4.17c.715-4.916-3.677-7.092-3.715-7.129a.331.331 0 01-.188-.45l3-9.943a.453.453 0 01.265-.263h.113A.7.7 0 014.01.45a12.385 12.385 0 008.292 3.45 13.564 13.564 0 007.654-2.664.452.452 0 01.188-.188.226.226 0 01.15-.038h.038a.338.338 0 01.188.038.452.452 0 01.188.188A13.159 13.159 0 0028.36 3.9a11.308 11.308 0 004.277-.863A13.539 13.539 0 0036.652.45a.4.4 0 01.225-.075h.111a.371.371 0 01.263.263l3 9.943a.383.383 0 01-.222.45z"/><path class="b" d="M7.683 15.496s5.328-4.577 8.555-1.576c0 0-3.077 3.3-.45 6.679s5.14 4.54 5.14 6.153.675 2.7-3.189 7.316c0 0-2.176-1.126-2.176 0 0 0-2.064 0-2.251.563 0 0-.038.825 1.013.825a4.106 4.106 0 005.515-1.876 47.226 47.226 0 012.514-4.015v-3.3a3.39 3.39 0 011.576 1.5c.675 1.2.675 5.628.675 5.628s-2.514 0-3.189.638-1.576 0-1.876.825 1.051 1.051 2.439.375a1.813 1.813 0 002.251 0c1.313-.863 1.8-1.313 2.514-.3.675 1.013 1.688-.488 0-1.613s-1.013-3.677-1.013-3.677 0-2.814-1.613-3.377.113-1.876 3.94.375 4.39 2.139 4.2.113c0 0 1.013.488 1.126-.45s-3.3-3.94-3.3-3.94-6.301-5.741-11.141-5.25c0 0-1.576-.488-.3-2.251 1.238-1.763.45-5.7-1.951-5.553a3.992 3.992 0 00-3.3 1.876s-8.219 3.186-5.709 4.312z"/><path d="M17.593 46.073l-.075 1.126h-3.152v-.188a.66.66 0 00.225-.038 1.625 1.625 0 00.188-.038q.113-.056.113-.113a.226.226 0 00.038-.15v-2.739c0-.075 0-.113-.038-.15l-.113-.113c-.038-.038-.113-.038-.188-.075a1.625 1.625 0 01-.188-.038v-.184h2.927v.9h-.188a1.671 1.671 0 00-.225-.45.694.694 0 00-.338-.263h-1.05v1.5h.413a.645.645 0 00.3-.038.518.518 0 00.15-.113.611.611 0 00.113-.225.556.556 0 00.038-.263h.188v1.5h-.225a.7.7 0 00-.075-.263l-.113-.225a.375.375 0 00-.188-.15.556.556 0 00-.263-.038h-.413v1.128a.556.556 0 00.038.263.2.2 0 00.075.15c.038.038.113.038.188.075h.788c.075 0 .15-.038.225-.038a.2.2 0 00.15-.075c.075-.075.15-.225.263-.375a3.344 3.344 0 01.188-.375h.225zm3.075-.674a1.011 1.011 0 01.263.3.957.957 0 010 .9 2.428 2.428 0 01-.3.338 1.387 1.387 0 01-.413.188 1.884 1.884 0 01-.45.075h-1.8v-.188a.408.408 0 00.188-.038 1.625 1.625 0 00.188-.038c.038-.038.113-.075.113-.113a.226.226 0 00.038-.15v-2.739c0-.075 0-.113-.038-.15l-.113-.113c-.038-.038-.113-.038-.188-.075-.075 0-.113-.038-.15-.038v-.185h1.762a1.157 1.157 0 01.375.038 1.333 1.333 0 01.338.15.877.877 0 01.263.263.634.634 0 01.113.375 1.11 1.11 0 01-.075.375.673.673 0 01-.188.263.817.817 0 01-.3.188l-.338.113v.038a1.652 1.652 0 01.375.075 1.333 1.333 0 01.337.148zm-.675-.563a.6.6 0 00.15-.263.833.833 0 00.038-.338.648.648 0 00-.188-.488.742.742 0 00-.525-.188h-.45v1.463h.338a1.157 1.157 0 00.375-.038.316.316 0 00.263-.148zm.375 1.2a.764.764 0 00-.225-.563.883.883 0 00-.638-.225h-.488v1.351a.283.283 0 00.15.263.562.562 0 00.375.075.792.792 0 00.6-.225.861.861 0 00.226-.675zm2.815 1.163h-1.688v-.189h.225a.281.281 0 00.188-.038c.075-.038.113-.038.113-.113a.226.226 0 00.038-.15V43.97c0-.075 0-.113-.038-.15a.518.518 0 00-.15-.113c-.038-.038-.113-.038-.188-.075a1.625 1.625 0 01-.188-.038v-.184h1.688v.188a.408.408 0 00-.188.038 1.625 1.625 0 00-.188.038c-.075.038-.113.038-.15.113a.226.226 0 00-.038.15v2.739c0 .075 0 .113.038.15a.518.518 0 00.15.113 1.625 1.625 0 00.188.038c.075 0 .15.038.225.038v.188zm2.85-1.764a.817.817 0 01.188.3 1.11 1.11 0 01.075.375 1.013 1.013 0 01-.375.825 1.372 1.372 0 01-.938.338 2.533 2.533 0 01-.525-.075 1.624 1.624 0 01-.45-.188l-.113.188h-.225l-.037-1.312h.225c.038.15.113.3.15.45.075.113.15.263.225.375a.9.9 0 00.788.338 1.039 1.039 0 00.338-.038.785.785 0 00.225-.15.267.267 0 00.113-.225.638.638 0 00.038-.263.756.756 0 00-.113-.413 1.022 1.022 0 00-.375-.3c-.113-.038-.263-.113-.413-.15a3.892 3.892 0 01-.375-.15 1.294 1.294 0 01-.488-.375 1.038 1.038 0 01-.188-.6 1.6 1.6 0 01.075-.413 2.062 2.062 0 01.263-.338 3.3 3.3 0 01.375-.225 1.884 1.884 0 01.45-.075 1.4 1.4 0 01.45.075 1.174 1.174 0 01.375.188l.113-.188h.225l.038 1.276h-.263a1.344 1.344 0 00-.15-.413 1.174 1.174 0 00-.188-.375 1.733 1.733 0 00-.263-.263.742.742 0 00-.413-.075.655.655 0 00-.45.15.538.538 0 00-.188.413.756.756 0 00.113.413.817.817 0 00.338.263 1.568 1.568 0 00.375.15 1.568 1.568 0 01.375.15 2.227 2.227 0 01.3.15.592.592 0 01.3.187z"/></svg>