<svg data-name="Group 1572" xmlns="http://www.w3.org/2000/svg" width="33.297" height="55.849" viewBox="0 0 33.297 55.849"><path data-name="Path 457" d="M29.273 46.431a4.85 4.85 0 01-4.864 4.864H8.932a4.85 4.85 0 01-4.864-4.864V4.864A4.85 4.85 0 018.932 0h15.477a4.85 4.85 0 014.864 4.864z" fill="#1d256d"/><path data-name="Rectangle 7" fill="#fff" d="M6.854 3.228h19.589v44.794H6.854z"/><path data-name="Path 458" d="M33.3 53.552a2.284 2.284 0 01-2.3 2.3H2.3a2.284 2.284 0 01-2.3-2.3 2.284 2.284 0 012.3-2.3H31a2.257 2.257 0 012.3 2.3z" fill="#1d256d"/><g data-name="Group 206" fill="#18572c"><path data-name="Path 459" d="M21.667 13.001l-.221 2.565h-9.817v-.442c.177 0 .4-.044.663-.044a3.127 3.127 0 00.531-.088.546.546 0 00.354-.221.476.476 0 00.088-.354V8.092a.833.833 0 00-.088-.354.756.756 0 00-.4-.265 4.7 4.7 0 00-.619-.133c-.265-.044-.442-.044-.619-.088V6.81h9.242v2.078h-.619a2.558 2.558 0 00-.708-.973 1.821 1.821 0 00-1.061-.575c-.177 0-.4-.044-.619-.044h-2.651v3.449h2.653a4.024 4.024 0 00.929-.088 1.656 1.656 0 00.531-.31 1.317 1.317 0 00.31-.486 2.86 2.86 0 00.177-.575h.618v3.4h-.619a4.537 4.537 0 00-.177-.619 1.028 1.028 0 00-.31-.486 1.056 1.056 0 00-.575-.31 4.561 4.561 0 00-.884-.088h-2.653v2.609a2.05 2.05 0 00.088.619.591.591 0 00.31.354 1.106 1.106 0 00.575.133c.265 0 .619.044 1.061.044h.708a3.813 3.813 0 00.752-.044 3.413 3.413 0 00.663-.088 1.019 1.019 0 00.486-.177 3.185 3.185 0 00.8-.884 8.97 8.97 0 00.531-.884h.575z"/><path data-name="Path 460" d="M21.667 27.46l-.265 2.565h-9.773v-.442c.133 0 .354-.044.619-.044a1.732 1.732 0 00.575-.088.855.855 0 00.4-.221.541.541 0 00.133-.4v-6.146a.833.833 0 00-.088-.354 1.543 1.543 0 00-.4-.265 3.79 3.79 0 00-.575-.133 3.469 3.469 0 00-.619-.088v-.442h5.262v.442c-.177 0-.4.044-.619.044a4.645 4.645 0 01-.575.088q-.332.066-.4.265a.532.532 0 00-.088.354v5.749a2.35 2.35 0 00.044.619.688.688 0 00.265.354 1.171 1.171 0 00.619.133 7.859 7.859 0 001.105.044h.663c.221 0 .442-.044.663-.044.221-.044.4-.044.575-.088a.833.833 0 00.4-.177 7.431 7.431 0 00.84-.84 6.384 6.384 0 00.663-.929h.575z"/><path data-name="Path 461" d="M20.783 40.417a1.989 1.989 0 01.663.708 2.055 2.055 0 01.221.929 2.343 2.343 0 01-1.415 2.034 7.215 7.215 0 01-3.538.8 9.655 9.655 0 01-1.94-.182 7.6 7.6 0 01-1.68-.486l-.442.486h-.84l-.138-3.184h.84a4.181 4.181 0 00.619 1.061 3.577 3.577 0 00.929.884 4.067 4.067 0 001.238.619 6.192 6.192 0 001.68.221 5.056 5.056 0 001.238-.133 2.1 2.1 0 00.84-.354 1.125 1.125 0 00.486-.531 1.639 1.639 0 00.177-.663 1.657 1.657 0 00-.486-1.061 3.475 3.475 0 00-1.459-.752c-.442-.133-.973-.221-1.548-.4a21.647 21.647 0 01-1.5-.4 4.494 4.494 0 01-1.9-.929 1.915 1.915 0 01-.663-1.5 1.545 1.545 0 01.354-.973 3.108 3.108 0 01.973-.84 5.9 5.9 0 011.415-.531 6.993 6.993 0 011.68-.177 7.642 7.642 0 011.813.177 11.4 11.4 0 011.459.442l.442-.442h.84l.088 3.1h-.84a4.455 4.455 0 00-.531-1.017 3.483 3.483 0 00-.752-.884 4.181 4.181 0 00-1.061-.619 5.212 5.212 0 00-1.548-.221 3.374 3.374 0 00-1.68.4 1.18 1.18 0 00-.708.973 1.281 1.281 0 00.442 1.017 3.469 3.469 0 001.282.663l1.459.4c.486.133.973.221 1.415.354l1.194.4c.263.213.573.389.882.611z"/></g></svg>